<svg width="35" height="35" viewBox="0 0 35 35" fill="none" xmlns="http://www.w3.org/2000/svg">
<circle cx="17.5" cy="17.5" r="17.5" fill="#C4C4C4"/>
<path d="M24 20V10M18 12V10V12ZM18 12C17.4696 12 16.9609 12.2107 16.5858 12.5858C16.2107 12.9609 16 13.4696 16 14C16 14.5304 16.2107 15.0391 16.5858 15.4142C16.9609 15.7893 17.4696 16 18 16V12ZM18 12C18.5304 12 19.0391 12.2107 19.4142 12.5858C19.7893 12.9609 20 13.4696 20 14C20 14.5304 19.7893 15.0391 19.4142 15.4142C19.0391 15.7893 18.5304 16 18 16V12ZM12 24C12.5304 24 13.0391 23.7893 13.4142 23.4142C13.7893 23.0391 14 22.5304 14 22C14 21.4696 13.7893 20.9609 13.4142 20.5858C13.0391 20.2107 12.5304 20 12 20V24ZM12 24C11.4696 24 10.9609 23.7893 10.5858 23.4142C10.2107 23.0391 10 22.5304 10 22C10 21.4696 10.2107 20.9609 10.5858 20.5858C10.9609 20.2107 11.4696 20 12 20V24ZM12 24V26V24ZM12 20V10V20ZM18 16V26V16ZM24 24C24.5304 24 25.0391 23.7893 25.4142 23.4142C25.7893 23.0391 26 22.5304 26 22C26 21.4696 25.7893 20.9609 25.4142 20.5858C25.0391 20.2107 24.5304 20 24 20V24ZM24 24C23.4696 24 22.9609 23.7893 22.5858 23.4142C22.2107 23.0391 22 22.5304 22 22C22 21.4696 22.2107 20.9609 22.5858 20.5858C22.9609 20.2107 23.4696 20 24 20V24ZM24 24V26V24Z" stroke="white" stroke-width="1.9" stroke-linecap="round" stroke-linejoin="round"/>
</svg>
