<svg width="85" height="23" viewBox="0 0 85 23" fill="none" xmlns="http://www.w3.org/2000/svg">
<path d="M9.91309 14.1631C9.20996 14.4951 8.4043 14.7588 7.49609 14.9541C6.59766 15.1396 6.13379 15.2373 6.10449 15.2471C5.3623 15.4619 4.83984 15.7305 4.53711 16.0527C4.24414 16.375 4.09766 16.8193 4.09766 17.3857C4.09766 17.9912 4.29297 18.4648 4.68359 18.8066C5.07422 19.1387 5.62109 19.3047 6.32422 19.3047C7.4082 19.3047 8.27734 18.9775 8.93164 18.3232C9.58594 17.6592 9.91309 16.7754 9.91309 15.6719V14.1631ZM14 10.0029V19.0557C14 19.3779 14.0244 19.749 14.0732 20.1689C14.1221 20.5889 14.1465 20.8477 14.1465 20.9453C14.1465 21.4531 13.9854 21.8486 13.6631 22.1318C13.3408 22.4248 12.8916 22.5713 12.3154 22.5713C11.5244 22.5713 10.9385 22.3662 10.5576 21.9561C10.1865 21.5459 9.99609 20.9014 9.98633 20.0225C9.44922 20.8525 8.74609 21.4873 7.87695 21.9268C7.00781 22.3564 5.99707 22.5713 4.84473 22.5713C3.32129 22.5713 2.13477 22.1367 1.28516 21.2676C0.445312 20.3984 0.0253906 19.1826 0.0253906 17.6201C0.0253906 16.1553 0.381836 15.0371 1.09473 14.2656C1.80762 13.4844 3.01855 12.9131 4.72754 12.5518C5.38184 12.415 6.21191 12.2881 7.21777 12.1709C8.2334 12.0439 8.89258 11.9316 9.19531 11.834C9.41992 11.7559 9.58594 11.6143 9.69336 11.4092C9.80078 11.2041 9.85449 10.9453 9.85449 10.6328C9.85449 9.98828 9.6543 9.5293 9.25391 9.25586C8.85352 8.97266 8.18457 8.83105 7.24707 8.83105C6.75879 8.83105 6.30957 8.89941 5.89941 9.03613C5.49902 9.17285 5.14258 9.37305 4.83008 9.63672C4.72266 9.73438 4.56152 9.90039 4.34668 10.1348C3.67285 10.8672 3.04297 11.2334 2.45703 11.2334C1.96875 11.2334 1.55859 11.0674 1.22656 10.7354C0.904297 10.3936 0.743164 9.97852 0.743164 9.49023C0.743164 8.42578 1.35352 7.49805 2.57422 6.70703C3.80469 5.90625 5.31348 5.50586 7.10059 5.50586C9.32715 5.50586 11.0312 5.8916 12.2129 6.66309C13.4043 7.43457 14 8.54785 14 10.0029ZM24.6641 9.22656C23.5996 9.22656 22.7598 9.64648 22.1445 10.4863C21.5293 11.3164 21.2217 12.4639 21.2217 13.9287C21.2217 15.5303 21.5146 16.7559 22.1006 17.6055C22.6963 18.4551 23.5508 18.8799 24.6641 18.8799C25.8359 18.8799 26.7246 18.4648 27.3301 17.6348C27.9355 16.7949 28.2383 15.5596 28.2383 13.9287C28.2383 12.4248 27.9258 11.2676 27.3008 10.457C26.6758 9.63672 25.7969 9.22656 24.6641 9.22656ZM28.2383 2.50293C28.2383 1.71191 28.4092 1.12109 28.751 0.730469C29.0928 0.330078 29.6104 0.129883 30.3037 0.129883C30.9971 0.129883 31.5146 0.330078 31.8564 0.730469C32.1982 1.12109 32.3691 1.71191 32.3691 2.50293V19.9053C32.3691 20.6963 32.1934 21.2871 31.8418 21.6777C31.4902 22.0684 30.958 22.2637 30.2451 22.2637C29.6104 22.2637 29.1318 22.1025 28.8096 21.7803C28.4873 21.4482 28.3262 20.96 28.3262 20.3154V19.8467C27.6914 20.7842 26.9932 21.4678 26.2314 21.8975C25.4697 22.3271 24.5762 22.542 23.5508 22.542C21.5879 22.542 19.9961 21.7656 18.7754 20.2129C17.5645 18.6602 16.959 16.624 16.959 14.1045C16.959 11.5654 17.5645 9.50488 18.7754 7.92285C19.9961 6.33105 21.5684 5.53516 23.4922 5.53516C24.5078 5.53516 25.416 5.75 26.2168 6.17969C27.0176 6.59961 27.6914 7.22461 28.2383 8.05469V2.50293ZM49.0977 7.83496C49.6445 7.07324 50.2988 6.50195 51.0605 6.12109C51.8223 5.73047 52.6768 5.53516 53.624 5.53516C55.2354 5.53516 56.5049 6.00391 57.4326 6.94141C58.3701 7.86914 58.8389 9.13867 58.8389 10.75V19.9053C58.8389 20.6963 58.6631 21.2871 58.3115 21.6777C57.9697 22.0684 57.4473 22.2637 56.7441 22.2637C56.0605 22.2637 55.5381 22.0635 55.1768 21.6631C54.8154 21.2627 54.6348 20.6768 54.6348 19.9053V11.6143C54.6348 10.8525 54.4248 10.2617 54.0049 9.8418C53.5947 9.41211 53.0186 9.19727 52.2764 9.19727C51.4463 9.19727 50.7871 9.46582 50.2988 10.0029C49.8105 10.54 49.5664 11.2773 49.5664 12.2148V19.9053C49.5664 20.6865 49.3906 21.2773 49.0391 21.6777C48.6875 22.0684 48.165 22.2637 47.4717 22.2637C46.7783 22.2637 46.2607 22.0684 45.9189 21.6777C45.5771 21.2871 45.4062 20.6963 45.4062 19.9053V11.6436C45.4062 10.8721 45.2061 10.2764 44.8057 9.85645C44.4053 9.43652 43.834 9.22656 43.0918 9.22656C42.2617 9.22656 41.6025 9.49512 41.1143 10.0322C40.6357 10.5693 40.3965 11.3066 40.3965 12.2441V19.9053C40.3965 20.6865 40.2207 21.2773 39.8691 21.6777C39.5176 22.0684 38.9902 22.2637 38.2871 22.2637C37.5938 22.2637 37.0713 22.0684 36.7197 21.6777C36.3682 21.2773 36.1924 20.6865 36.1924 19.9053V8.17188C36.1924 7.40039 36.3633 6.80957 36.7051 6.39941C37.0566 5.97949 37.5547 5.76953 38.1992 5.76953C38.8047 5.76953 39.2783 5.94043 39.6201 6.28223C39.9619 6.62402 40.167 7.13184 40.2354 7.80566C40.8018 7.04395 41.4512 6.47266 42.1836 6.0918C42.916 5.70117 43.7412 5.50586 44.6592 5.50586C45.665 5.50586 46.5244 5.69629 47.2373 6.07715C47.9502 6.44824 48.5703 7.03418 49.0977 7.83496ZM66.8516 19.9053C66.8516 20.6865 66.6709 21.2773 66.3096 21.6777C65.958 22.0684 65.4307 22.2637 64.7275 22.2637C64.0146 22.2637 63.4775 22.0684 63.1162 21.6777C62.7646 21.2773 62.5889 20.6865 62.5889 19.9053V8.17188C62.5889 7.37109 62.7646 6.77051 63.1162 6.37012C63.4775 5.96973 64.0146 5.76953 64.7275 5.76953C65.4307 5.76953 65.958 5.96973 66.3096 6.37012C66.6709 6.77051 66.8516 7.37109 66.8516 8.17188V19.9053ZM62.4717 2.38574C62.4717 1.77051 62.6914 1.24316 63.1309 0.803711C63.5801 0.354492 64.1123 0.129883 64.7275 0.129883C65.3525 0.129883 65.8799 0.349609 66.3096 0.789062C66.749 1.21875 66.9688 1.75098 66.9688 2.38574C66.9688 3.00098 66.749 3.52832 66.3096 3.96777C65.8701 4.40723 65.3428 4.62695 64.7275 4.62695C64.1221 4.62695 63.5947 4.40234 63.1455 3.95312C62.6963 3.50391 62.4717 2.98145 62.4717 2.38574ZM74.9375 19.9053C74.9375 20.6865 74.7568 21.2773 74.3955 21.6777C74.0439 22.0684 73.5117 22.2637 72.7988 22.2637C72.0957 22.2637 71.5635 22.0684 71.2021 21.6777C70.8506 21.2773 70.6748 20.6865 70.6748 19.9053V8.17188C70.6748 7.37109 70.8506 6.77051 71.2021 6.37012C71.5537 5.96973 72.0859 5.76953 72.7988 5.76953C73.4238 5.76953 73.8926 5.93066 74.2051 6.25293C74.5273 6.56543 74.7129 7.05859 74.7617 7.73242L74.8203 8.25977C75.3477 7.37109 76.0264 6.69238 76.8564 6.22363C77.6963 5.74512 78.6338 5.50586 79.6689 5.50586C81.3975 5.50586 82.7061 5.97949 83.5947 6.92676C84.4834 7.87402 84.9277 9.28027 84.9277 11.1455V19.9053C84.9277 20.6865 84.7471 21.2773 84.3857 21.6777C84.0342 22.0684 83.502 22.2637 82.7891 22.2637C82.0859 22.2637 81.5537 22.0684 81.1924 21.6777C80.8408 21.2773 80.665 20.6865 80.665 19.9053V12.376C80.665 11.2334 80.4697 10.418 80.0791 9.92969C79.6982 9.44141 79.0732 9.19727 78.2041 9.19727C77.1982 9.19727 76.4023 9.5 75.8164 10.1055C75.2305 10.7012 74.9375 11.5166 74.9375 12.5518V19.9053Z" fill="#FF7512"/>
</svg>
