<svg width="48" height="23" viewBox="0 0 48 23" fill="none" xmlns="http://www.w3.org/2000/svg">
<path d="M0.00683594 2.50293C0.00683594 1.71191 0.182617 1.12109 0.53418 0.730469C0.895508 0.330078 1.43262 0.129883 2.14551 0.129883C2.84863 0.129883 3.37598 0.330078 3.72754 0.730469C4.08887 1.12109 4.26953 1.71191 4.26953 2.50293V19.9053C4.26953 20.6865 4.08887 21.2773 3.72754 21.6777C3.37598 22.0684 2.84863 22.2637 2.14551 22.2637C1.43262 22.2637 0.895508 22.0684 0.53418 21.6777C0.182617 21.2773 0.00683594 20.6865 0.00683594 19.9053V2.50293ZM12.4727 19.9053C12.4727 20.6865 12.292 21.2773 11.9307 21.6777C11.5791 22.0684 11.0518 22.2637 10.3486 22.2637C9.63574 22.2637 9.09863 22.0684 8.7373 21.6777C8.38574 21.2773 8.20996 20.6865 8.20996 19.9053V8.17188C8.20996 7.37109 8.38574 6.77051 8.7373 6.37012C9.09863 5.96973 9.63574 5.76953 10.3486 5.76953C11.0518 5.76953 11.5791 5.96973 11.9307 6.37012C12.292 6.77051 12.4727 7.37109 12.4727 8.17188V19.9053ZM8.09277 2.38574C8.09277 1.77051 8.3125 1.24316 8.75195 0.803711C9.20117 0.354492 9.7334 0.129883 10.3486 0.129883C10.9736 0.129883 11.501 0.349609 11.9307 0.789062C12.3701 1.21875 12.5898 1.75098 12.5898 2.38574C12.5898 3.00098 12.3701 3.52832 11.9307 3.96777C11.4912 4.40723 10.9639 4.62695 10.3486 4.62695C9.74316 4.62695 9.21582 4.40234 8.7666 3.95312C8.31738 3.50391 8.09277 2.98145 8.09277 2.38574ZM20.5586 19.9053C20.5586 20.6865 20.3779 21.2773 20.0166 21.6777C19.665 22.0684 19.1328 22.2637 18.4199 22.2637C17.7168 22.2637 17.1846 22.0684 16.8232 21.6777C16.4717 21.2773 16.2959 20.6865 16.2959 19.9053V8.17188C16.2959 7.37109 16.4717 6.77051 16.8232 6.37012C17.1748 5.96973 17.707 5.76953 18.4199 5.76953C19.0449 5.76953 19.5137 5.93066 19.8262 6.25293C20.1484 6.56543 20.334 7.05859 20.3828 7.73242L20.4414 8.25977C20.9688 7.37109 21.6475 6.69238 22.4775 6.22363C23.3174 5.74512 24.2549 5.50586 25.29 5.50586C27.0186 5.50586 28.3271 5.97949 29.2158 6.92676C30.1045 7.87402 30.5488 9.28027 30.5488 11.1455V19.9053C30.5488 20.6865 30.3682 21.2773 30.0068 21.6777C29.6553 22.0684 29.123 22.2637 28.4102 22.2637C27.707 22.2637 27.1748 22.0684 26.8135 21.6777C26.4619 21.2773 26.2861 20.6865 26.2861 19.9053V12.376C26.2861 11.2334 26.0908 10.418 25.7002 9.92969C25.3193 9.44141 24.6943 9.19727 23.8252 9.19727C22.8193 9.19727 22.0234 9.5 21.4375 10.1055C20.8516 10.7012 20.5586 11.5166 20.5586 12.5518V19.9053ZM38.459 19.9053C38.459 20.6768 38.2783 21.2627 37.917 21.6631C37.5654 22.0635 37.043 22.2637 36.3496 22.2637C35.666 22.2637 35.1533 22.0684 34.8115 21.6777C34.4795 21.2871 34.3135 20.6963 34.3135 19.9053V2.50293C34.3135 1.70215 34.4795 1.10645 34.8115 0.71582C35.1533 0.325195 35.666 0.129883 36.3496 0.129883C37.043 0.129883 37.5654 0.330078 37.917 0.730469C38.2783 1.13086 38.459 1.72168 38.459 2.50293V11.7461L42.6924 6.9707C43.1123 6.48242 43.4541 6.16504 43.7178 6.01855C43.9814 5.87207 44.2793 5.79883 44.6113 5.79883C45.1289 5.79883 45.583 5.97949 45.9736 6.34082C46.3643 6.69238 46.5596 7.10254 46.5596 7.57129C46.5596 8.04004 46.1592 8.70898 45.3584 9.57812L45.3145 9.62207L43.1025 11.9805L46.8525 18.4258C47.1455 18.9043 47.3359 19.2705 47.4238 19.5244C47.5215 19.7686 47.5703 20.0029 47.5703 20.2275C47.5703 20.8232 47.3799 21.3115 46.999 21.6924C46.6182 22.0732 46.1299 22.2637 45.5342 22.2637C45.0166 22.2637 44.5674 22.1514 44.1865 21.9268C43.8154 21.7021 43.4932 21.3457 43.2197 20.8574L40.0703 15.2178L38.459 16.9609V19.9053Z" fill="#FF7512"/>
</svg>
