<svg width="18" height="17" viewBox="0 0 18 17" fill="none" xmlns="http://www.w3.org/2000/svg">
<path d="M1.5 2.27778C1.5 2.0715 1.5878 1.87367 1.74408 1.72781C1.90036 1.58194 2.11232 1.5 2.33333 1.5H15.6667C15.8877 1.5 16.0996 1.58194 16.2559 1.72781C16.4122 1.87367 16.5 2.0715 16.5 2.27778V4.28911C16.5 4.49537 16.4121 4.69317 16.2558 4.839L10.9108 9.82767C10.7545 9.97349 10.6667 10.1713 10.6667 10.3776V12.3889L7.33333 15.5V10.3776C7.33329 10.1713 7.24546 9.97349 7.08917 9.82767L1.74417 4.839C1.58788 4.69317 1.50005 4.49537 1.5 4.28911V2.27778Z" stroke="white" stroke-width="2" stroke-linecap="round" stroke-linejoin="round"/>
</svg>
